<?xml version="1.0" encoding="UTF-8"?>
<svg id="Layer_1" data-name="Layer 1" xmlns="http://www.w3.org/2000/svg" version="1.1" viewBox="0 0 841.9 595.3">
  <defs>
    <style>
      .cls-1 {
        fill: #1c3664;
      }

      .cls-1, .cls-2 {
        stroke-width: 0px;
      }

      .cls-2, .cls-3, .cls-4, .cls-5 {
        fill: #fff;
      }

      .cls-3 {
        font-family: Tahoma, Tahoma;
        font-size: 35.6px;
      }

      .cls-4 {
        font-size: 23.9px;
      }

      .cls-4, .cls-5 {
        font-family: BellMT, 'Bell MT';
      }

      .cls-5 {
        font-size: 49.7px;
      }
    </style>
  </defs>
  <path class="cls-1" d="M569.2,514.8c-6.8,12-5.5,15.1-14.7,24.7-16.9,17.6-35.2,34.5-55.3,48.3-18.3,12.6-41.7,2.7-50.6-18-4.1-9.7-5.6-20.9-11.4-29.4-6.5-9.7-15.1-20.9-25.2-24.6-14.8-5.5-21.3-14.9-26.3-28-7.5-19.7-14.9-39.5-23.9-58.6-3.4-7.2-10.2-14.6-17.4-18-21.7-10.6-36.4-27.2-52.3-45.2-25.7-29-54.5-58.5-88.2-76.3-30-15.8-47.3-38-63.9-63.8-3.8-5.9-7.1-12.2-10.1-18.5-7.9-16.2-19.8-22.3-38.4-27-20.5-5.1-38.4-22.5-55.7-36.6-4.8-3.9-5.3-15.4-4.8-23.1,1.1-15,31-51.7,44.9-58.1,27.2-12.5,55.6-23.1,81.1-38.4C190.1,4.4,226.1,2.5,262.3.3c39.3-2.4,78.8-1.8,118.1-4.6,25.4-1.8,42.1,9.3,53,29.8,6.3,11.8,14,13.3,25.7,11.7,35.5-4.8,71.1-10.2,106.8-12,16.1-.8,34.3,3.3,48.7,10.7,66.4,34.6,127.9,76.7,184.8,125.5,11.1,9.6,11.9,22.7,1.4,33.1-21.6,21.5-45.5,41.5-52.4,73.3-3.8,17.6-6.4,35.6-8.8,53.5-1.9,13.8-27.2,48.2-39.9,54.2-5,2.4-9.9,6.1-13.4,10.3-11.6,14-21.6,29.4-33.9,42.6-20.3,21.7-41.8,42.4-63.3,63-4.8,4.6-19.8,2.1-23.4,9.2,0,3.5,7.1,7.1,3.5,14.2ZM554.5,539.5"/>
  <g>
    <path class="cls-2" d="M450.1,367.6c-42.6-10.6-87.1-54-87.8-112.2-.6-54.1,32.9-101.9,83.3-117.6,67.4-21,138.3,19.8,153.6,88.3,14,63.1-25,126.4-87.7,142.4-1,.3-1.7.6-3.3.9-29.8,5.8-58-1.8-58-1.8ZM487.9,138.1c-26.6,0-46.6,4.9-64.7,16.2-25.7,16-42.9,37.8-46.2,69-.6,5.7.3,10.9,3.7,15.6,1.9,2.6,4.2,5.1,5.2,8,1.2,3.6,2.4,7.7,1.7,11.3-2,10.4-.6,15.4,9.1,20.2,8.3,4.2,11.3,10.5,10.8,19.3-.5,10.4.8,12.1,11.2,15.1,5.6,1.6,9.7,4.6,12.3,10.1,4.5,9.6,6.8,11.1,17.2,8.7,10.2-2.4,18.2.2,25.8,6.7,5.6,4.8,10,4.9,15.5.2,7.7-6.5,16-10,26.2-6.8,1.7.5,3.6.4,5.5.6,4.6.4,8.4-1.4,10-5.7,3-8.6,9.2-12.8,17.7-14.8,5.7-1.4,8.1-4.8,7.6-10.4-1-11,1.7-19.1,12.7-24.1,7.6-3.4,9.8-9.5,7.7-15.8-2.3-6.6-.8-12,2.9-17.7,3-4.5,6.1-9.7,6.4-14.8,1-14.9-1.6-29.5-10.6-41.8-23-31.5-53.8-48.6-87.9-49ZM399.8,297.4c-2-3.3-4-6.7-6.3-10-.5-.7-2.5-1.3-3.1-.9-.9.6-2,2.5-1.6,3.3,1.4,3.7,3.2,7.4,5.1,10.8.5.9,2.7,1.7,3.4,1.2,1-.7,1.4-2.4,2.5-4.5ZM412,320.7c0,5.2,7.7,12.1,11.6,11.2.9-.2,2.1-2.6,1.8-3.4-1.7-4.8-5.3-7.8-10.1-9-1-.3-2.5.9-3.3,1.3ZM550.3,319.2c-4.9-.2-12.1,6.3-12.1,10.1,0,.9,1.3,2.4,2.2,2.5,3.8.6,11.3-5.9,11.4-9.8,0-1.1-1.1-2.2-1.5-2.9ZM576.1,290.9c-1.2-2.2-1.7-3.9-2.7-4.5-.8-.4-3,.4-3.4,1.3-1.9,3.6-4,7.4-4.9,11.3-.7,2.9,2.3,4.3,4.3,2,2.7-3,4.6-6.8,6.8-10.2ZM460.8,347.6c2-1.2,3.8-2.2,5.6-3.3-1.4-1.5-2.5-3.7-4.1-4.3-3.1-1.1-6.5-1.3-9.7-1.5-.9,0-2.4,1.1-2.7,1.9-.2.9.6,2.6,1.4,3,2.9,1.5,6,2.6,9.6,4.2ZM508.9,337.4c-3.3,1.2-6.2,2-8.8,3.4-1.2.6-1.7,2.5-2.4,3.9,1.3.7,2.6,1.9,3.8,1.9,3-.2,6.1-.6,8.8-1.7,1.6-.7,2.7-2.9,3.9-4.4-1.7-1-3.4-2-5.3-3ZM382.4,254.7c-.7-1.9-1.2-4.7-2.5-6.9-1.4-2.3-4-2-4.2.6-.2,3.8.7,7.7,1.3,11.4.1.6,1.7,1.5,2.5,1.4.8-.1,1.6-1.2,2-2.1.5-1.1.5-2.4.8-4.4ZM589,253.9c-.2-1.9,0-3.1-.4-4-.6-1.3-1.6-2.3-2.4-3.5-1,.8-2.6,1.5-2.9,2.5-.7,3.2-1.1,6.5-1.2,9.8,0,.9,1.2,2.4,2.1,2.5.8.2,2.3-.8,2.8-1.7,1-2,1.5-4.2,2-5.7ZM540.3,344.4c-6.2-.5-13.4,3.6-15.1,8.5,6.1-1.2,11-3.6,15.1-8.5ZM585.9,288.3c4.2-4.3,6-9.4,4.9-15.3-4,4.3-5.7,9.4-4.9,15.3ZM573.8,313c-5.3,2.9-8.3,7.4-9.6,13.1,5.3-2.9,8.7-7.1,9.6-13.1ZM398.9,326.5c.5-.3.9-.7,1.4-1-.5-5.6-5.4-11.9-10.8-11.9,3.1,4.3,6.3,8.6,9.4,12.9ZM468.1,363.8c14.7,2.8,23.3.7,25.7.9-1.1-2.1-5.5-5.5-14.7-5.5,0,0-7.3.9-10.3,3.6s-1.7.8-.7,1ZM428.6,345.4c-2.8-1.8-5.2-2.7-7.3-2.8-.6,0,.9,4.6,11.9,9.2,0,0-1.8-4.6-4.6-6.4ZM377.1,288.2c.6-.2,1.1-.4,1.7-.5,1.1-5.8-1.7-13.2-7.2-15.8,2.1,6.2,3.8,11.3,5.5,16.3Z"/>
    <g>
      <text class="cls-5" transform="translate(426.2 238.6)"><tspan x="0" y="0">MBG</tspan></text>
      <text class="cls-4" transform="translate(458 258.3)"><tspan x="0" y="0">EST.</tspan></text>
      <text class="cls-3" transform="translate(443.9 287.7)"><tspan x="0" y="0">2019</tspan></text>
    </g>
  </g>
  <g>
    <path class="cls-2" d="M198.6,136.8c0,0,0-.4,0-.4-.9-.1-1.6,0-2.5-.1v-16.1c0,0,0-.2.1-.2.5-.2,1-.4,1.5-.7,1.1-.8,2.3-1.1,3.6-.9,2,.2,4.1-1.7,4.4-2.6,0-.1-.6.1-.9.2-1.1.2-2.3.3-3.3-.3-1.7-.9-3.3-1.6-5.3-1.1-.1,0,0-.4-.1-.5,0-.3,0-.8-.4-.8-.3,0-.3,0-.5.3,0,.2,0,.9,0,1,0,6.9,0,13.8,0,20.7,0,.3,0,.6,0,.9-1,.1-2.3.4-3.1.6,0,0-.7.1-.7.2,2,.3,5.3.2,7.3-.2Z"/>
    <path class="cls-2" d="M197.9,77.1c-.2,0-.2.3,0,.4,14.9,3.5,23.6,12.5,24.8,27,1,11.9-2.5,23.1-14.2,28.6-16.5,7.7-30.5,3.1-41.6-11.5-.1-.1-.3,0-.3,0-.6,10.6,7.7,24.6,17,29.3,16.1,8.2,37.1,4.6,50-10.8,11.7-14,12.6-34.4,2.5-48.1-10.3-14.1-20.9-19-38.2-14.9Z"/>
  </g>
  <g>
    <g>
      <path class="cls-2" d="M474.4,556.7c-.2,0-.4,0-.6,0-.1,0-.2,0-.3,0-.2,0-.4,0-.6.1-.3,0-.5.2-.8.3-.3.2-.7.4-1,.6-.2.2-.5.3-.7.5,0,0,0,0,0,0,0,0,0,0-.1,0,0,0,0,0,0,0-.1,0-.3,0-.5-.1,0,0-.2,0-.3,0,0,0,0,0,0,0,0,0,0,0,0,.1,0,0,0,0,0,0,0,.1.1.2.2.3,0,0,.2.1.2.2,0,.2-.1.3-.1.5,0,0,0,.2,0,.3,0,0,0,0,0,.1,0,0,.2,0,.3,0,0,0,.2,0,.2,0,0,0,0,0,.1,0,0,0,0,0,0,0,0,0,.1,0,0-.1,0,0,0,0,0,0,0,0,0,0,0,0,0,0,.2,0,.3,0,.1,0,.2,0,.4.1,0,0,0,0,0,0,0,0,0,0,0,0,.1,0,.2,0,.4,0,0,0,0,0,0,0,0,0,0-.1,0-.2,0,0,0,0,0,0,.1,0,.2,0,.4,0,0,0,0,0,0,0,0,.1.1.2.3.2,0,0,.1,0,.2,0,0,0,0,0,.1,0,.1,0,.2,0,.3,0,.2,0,.4,0,.6.1,0,0,0,0,0,0,0,0,0,0,0,0,.4-.1.8-.1,1.2-.1,0,1.1,0,2.2,0,3.3,0,0,0,0,0,.1,0,0,0,.1,0,.2,0,0,0,0,0,0,0,.1,0,.2,0,.3,0,.4,0,.9,0,1.3,0,.5,0,1,0,1.4,0,.3,0,.7,0,1,0,0,0,0,0,0,0,0-.1,0-.2,0,0,0,0,0-.1,0,0,0,0,0,0,0,0,0,0,0,0,0,0,0,0,0,0,0,0,0,0,0,0,0,0,0,0,0,0,0,0,0,0,0,0,0,.1,0,.3,0,.5,0v.9h.1c0-.3,0-.6,0-.9.2,0,.4-.1.6,0,.1,0,.1,0,.1-.1,0-.2,0-.4,0-.5,0,0,0-.2,0-.3.1,0,.2.2.3.2.2.1.3.2.5.3,0,0,0,0,0,0,0,0,0,.1-.1.2,0,0,0,0-.1.2,0,.1-.2.2-.3.2,0,0,0,0,0,0,0,0-.2,0-.2,0,0,0,0,0,0,0,0,0,0,0,0,0,0,0,0,0,0,0,0,0,0,0,.1,0,0,0,0,0,0,0,0,0,0,0,0,0,0,0,0,0,0,0,0,0,0,0,.1,0,0,0,.2,0,.2,0,0,0,0,0,0,0,0,0,.2,0,.3,0,0,0,.1,0,0-.1,0-.2,0-.3,0-.5,0,0,.2,0,.2.1.4.2.8.4,1.1.6.1,0,.2.1.3.2,0,0,0,0,.1,0,.1,0,.2,0,.2-.2,0-.2,0-.3,0-.5,0-.1,0-.3-.1-.4,0,0,0,0,0,0,.4.2.8.4,1.2.6.1,0,.2,0,.4.1,0,0,.1,0,.2,0,0,0,.2-.2.1-.3,0-.1-.1-.3-.2-.4-.1-.2-.2-.4-.4-.6,0,0,0,0,0-.1.1,0,.2-.2.2-.3,0,0,0,0,0,0,0,0,0,0,0,0,0,0,0,0,0,0,0,0,0,0,0,0,0,0,0,0,0,0,0,0,0,0,0,0,0,0,0,0,0,0,0,0,0,0,.1,0,0,0,0,0,0,0,0,0,.1,0,.2-.1,0,0,0,0,0,0,0-.1,0-.2,0-.3,0,0,0-.2,0-.3,0,0,0-.1,0-.1,0,0,0-.1,0-.2,0,0,0-.1,0-.2,0,0,0,0,0,0,.1-.2.3-.3.4-.5,0,0,0,0,0-.1,0-.2.2-.3.3-.5.1-.2.2-.3.3-.6,0,0,0,0,0,0,0-.1,0-.2-.2-.2-.2,0-.4,0-.6,0,0,0-.2,0-.3-.1-.1,0-.2-.2-.4-.2-.2-.1-.5,0-.6,0,0,0,0,0,0,0,0,0,0,0,0,0-.1,0-.2,0-.3,0-.2,0-.4,0-.6-.1-.1,0-.2,0-.3,0,0,0-.2,0-.2.1,0,0,0,.2,0,.3,0,.2.1.3.2.5,0,0,.1.2.2.3,0,0,0,.1.1.2,0,0,.1.2.2.2,0,0,0,0,0,0,0,0-.1.1-.2.2,0,0,0,0-.1.1,0,0-.1.1-.2.2,0,0,0,0-.1,0,0,0,0,0,0,0-.2,0-.3.2-.4.4,0,0,0,0,0,0,0,0,0,0,0,0,0,0-.1,0-.2-.1-.1,0-.2-.2-.3-.2,0,0-.2,0-.3,0-.1,0-.2,0-.2.1-.3-.1-.5-.3-.8-.4,0,0-.2,0-.3-.1-.3,0-.5.1-.5.4,0,.3,0,.6,0,.9,0,.1,0,.3,0,.4,0,.2,0,.3,0,.5,0,.1,0,.3,0,.4,0,0-.1.1-.2.2,0,0,0,0,0,0,0-.5,0-1.1,0-1.6,0-.5,0-1.1,0-1.6,0-.2,0-.5,0-.7,0-.9,0-1.8,0-2.8,0-.3,0-.6,0-.9,0,0,0,0,0,0,0,0,.1,0,.2,0,.2,0,.4,0,.6,0,.2,0,.3,0,.5,0,0,0,0,0,0,0,.2,0,.3,0,.5,0,0,0,.2,0,.2,0,.1,0,.3,0,.4,0,0,0,.1,0,.2,0,0,0,.1,0,.2,0,0,0,.2,0,.3,0,.1,0,.2,0,.4,0,0,0,.2,0,.3,0,0,0,.2,0,.3,0,0,0,0,0,0,0,0,0,.2.1.3.2,0,0,0,0,0,0h0s0,0,0-.1c0,0,0,0,0,0,0,0,0,0,0,0,0,0,.1,0,.2,0,0,0,0,0,0,.1,0,0,0-.1,0-.2,0-.1,0-.3,0-.4,0-.2,0-.3,0-.5,0,0,0-.2-.2-.2,0,0-.1,0-.2-.1,0,0,0-.1-.1-.1-.3-.3-.6-.6-1-.8-.2-.2-.5-.3-.7-.5-.3-.2-.6-.3-1-.4-.3,0-.5-.1-.8-.2-.2,0-.4,0-.5,0,0,0,0,0,0,0,0,0,0,0,0-.1,0,0,0-.1,0-.2,0,0,0,0,0,0,0,0,0,0-.1.1,0,0,0,.1,0,.2-.1,0-.2,0-.4,0ZM470.1,569.7s0,0,.1,0c0,0,0,0,0,0,0-.1,0-.2,0-.3,0-.2,0-.1.1-.1.7,0,1.3,0,2,0,.4,0,.8,0,1.3,0,0,0,0,0,0,0,0,0,0,0,0,0,0,.1,0,.2,0,.3,0,0,0,0,0,0,0,0,0,0,0,0,0,0,0,0,0,0,0-.1,0-.3,0-.4,0-.2,0-.3,0-.5,0,0,0,0,0,0,0,0,0,0,0,0,0,0,.1,0,.1-.1,0,0,0,0,0,0,0,0,0,0,0,0,0,0,0,0,0,0,0,0,0,0,0-.1,0,0,0,0,0,0q0,0-.1,0s0,0,0-.1c0,0,0,0-.1,0,0-.1,0-.2.1-.3,0-.2.1-.4,0-.7,0-.2,0-.3,0-.5,0,0,0-.2,0-.2,0,0,0,0,0,0,0-.3,0-.6,0-1,0,0,0-.1,0-.2,0,0,0,0-.1-.1,0,0,0,0,0-.1,0-.1.1-.3.2-.4,0,0,.1-.2.2-.3,0-.1.2-.3.2-.4,0-.1,0-.3,0-.4,0-.1,0-.2,0-.3,0,0,0,0,0,0-.3,0-.6,0-.8,0-.1,0-.3,0-.4,0,0,0-.2,0-.3,0,0,0,0,0-.1,0,0,0,0,0,0,0,0,0,0,0,0,0,0,0,0-.1-.1-.1,0,0,0,0,0,0,0-.2-.2-.3-.4-.3-.2,0-.4,0-.6.2,0,0-.1.1-.1.2,0,0,0,0,0,0,0,0,0,0,0,0-.1,0-.2,0-.3,0-.2,0-.3-.1-.5-.1-.2,0-.4,0-.6,0,0,0,0,0-.1,0-.2,0-.3,0-.3.2,0,0,0,.2,0,.3,0,.3.2.6.3.8.1.2.2.4.3.6,0,0,0,0,0,0,0,0,0,0,0,.1,0,0,0,0,0,0,0,.1,0,.3,0,.4,0,.2,0,.3,0,.5,0,0,0,0,0,0,0,0,0,0,0,0-.1.1-.2.3-.1.4,0,.1,0,.2,0,.3,0,.2,0,.3,0,.5,0,.2.1.4.2.6,0,0,0,.1,0,.2,0,0,0,0,0,0,0,0,0,0,0,0,0,0,0,.1,0,.2,0,0,0,0,0,0,0,0,0,0,0,0,0,.3,0,.7,0,1Z"/>
      <path class="cls-2" d="M474.8,556.5c0,0,0,0,.1-.1,0,0,0,0,0,0,0,0,0,0,0,.2,0,0,0,0,0,.1,0,0,0,0,0,0,.2,0,.4,0,.5,0,.3,0,.6.1.8.2.3,0,.7.2,1,.4.2.1.5.3.7.5.4.2.7.5,1,.8,0,0,0,0,.1.1,0,0,0,0,.2.1,0,0,.2,0,.2.2,0,.2,0,.3,0,.5,0,.1,0,.3,0,.4,0,0,0,.1,0,.2,0,0,0,0,0-.1,0,0,0-.1-.2,0,0,0,0,0,0,0,0,0,0,0,0,0,0,0,0,0,0,.1h0s0,0,0,0c0,0-.2-.1-.3-.2,0,0,0,0,0,0,0,0-.2.1-.3,0,0,0-.2,0-.3,0-.1,0-.2,0-.4,0,0,0-.2,0-.3,0,0,0-.1,0-.2,0,0,0-.1,0-.2,0-.1,0-.3.1-.4,0,0,0-.1,0-.2,0-.2,0-.3,0-.5,0,0,0,0,0,0,0-.2,0-.3,0-.5,0-.2,0-.4,0-.6,0,0,0-.1,0-.2,0,0,0,0,0,0,0,0,.3,0,.6,0,.9,0,.9,0,1.8,0,2.8,0,.2,0,.5,0,.7,0,.5,0,1.1,0,1.6,0,.5,0,1.1,0,1.6,0,0,0,0,0,0,0,0,.2,0,.2-.2,0-.1,0-.3,0-.4,0-.2,0-.3,0-.5,0-.1,0-.3,0-.4,0-.3,0-.6,0-.9,0-.3.2-.4.5-.4.1,0,.2,0,.3.1.3.1.5.3.8.4,0,0,.1-.1.2-.1,0,0,.2,0,.3,0,.1,0,.2.1.3.2,0,0,.1,0,.2.1,0,0,0,0,0,0,0,0,0,0,0,0,0-.2.2-.3.4-.4,0,0,0,0,0,0,0,0,0,0,.1,0,0,0,.2-.1.2-.2,0,0,0,0,.1-.1,0,0,.1-.1.2-.2,0,0,0,0,0,0,0,0-.1-.2-.2-.2,0,0,0-.1-.1-.2,0,0-.1-.2-.2-.3,0-.2-.2-.3-.2-.5,0,0,0-.2,0-.3,0-.1.2-.2.2-.1.1,0,.2,0,.3,0,.2,0,.4,0,.6.1.1,0,.2,0,.3,0,0,0,0,0,0,0,0,0,0,0,0,0,.2-.1.4-.2.6,0,.1,0,.2.2.4.2,0,0,.2.1.3.1.2,0,.4,0,.6,0,.1,0,.2,0,.2.2,0,0,0,0,0,0,0,.2-.1.4-.3.6-.1.1-.2.3-.3.5,0,0,0,0,0,.1-.1.2-.3.3-.4.5,0,0,0,0,0,0,0,0,0,.1,0,.2,0,0,0,.1,0,.2,0,0,0,0,0,.1,0,0,0,.2,0,.3,0,.1,0,.2,0,.3,0,0,0,0,0,0,0,0-.1,0-.2.1,0,0,0,0,0,0,0,0,0,0-.1,0,0,0,0,0,0,0,0,0,0,0,0,0,0,0,0,0,0,0,0,0,0,0,0,0,0,0,0,0,0,0,0,0,0,0,0,0,0,0,0,0,0,0,0,.1-.1.2-.2.3,0,0,0,0,0,.1.1.2.3.4.4.6,0,.1.1.3.2.4,0,.1,0,.2-.1.3,0,0-.1,0-.2,0-.1,0-.3,0-.4-.1-.4-.2-.8-.4-1.2-.6,0,0,0,0,0,0,0,.1,0,.3.1.4,0,.2,0,.3,0,.5,0,.1,0,.2-.2.2,0,0,0,0-.1,0-.1,0-.2-.1-.3-.2-.4-.2-.8-.4-1.1-.6,0,0-.2,0-.2-.1,0,.2,0,.3,0,.5,0,0,0,.1,0,.1,0,0-.2,0-.3,0,0,0,0,0,0,0,0,0-.2,0-.2,0,0,0,0,0-.1,0,0,0,0,0,0,0,0,0,0,0,0,0,0,0,0,0,0,0,0,0,0,0-.1,0,0,0,0,0,0,0,0,0,0,0,0,0,0,0,0,0,0,0,0,0,.2,0,.2,0,0,0,0,0,0,0,.1,0,.2-.1.3-.2,0,0,0-.1.1-.2,0,0,0-.1.1-.2,0,0,0,0,0,0-.2-.1-.3-.2-.5-.3-.1,0-.2-.2-.3-.2,0,0,0,.2,0,.3,0,.2,0,.4,0,.5,0,.1,0,.1-.1.1-.2,0-.4,0-.6,0,0,.3,0,.6,0,.9h-.1v-.9c-.2,0-.3,0-.5,0,0,0,0,0,0,0,0,0,0,0,0,0,0,0,0,0,0,0,0,0,0,0,0,0,0,0,0,0,0,0,0,0,0,0,0,0,0,0,0,0,.1,0,0,0,.1,0,.2,0,0,0,0,0,0,0,0-.3,0-.7,0-1,0-.5,0-1,0-1.4,0-.4,0-.9,0-1.3,0-.1,0-.2,0-.3,0,0,0,0,0,0,0,0,0-.1,0-.2,0,0,0-.1,0-.1,0-1.1,0-2.2,0-3.3-.4,0-.8,0-1.2.1,0,0,0,0,0,0,0,0,0,0,0,0-.2,0-.4-.1-.6-.1-.1,0-.2,0-.3,0,0,0,0,0-.1,0,0,0-.1,0-.2,0-.1,0-.2,0-.3-.2,0,0,0,0,0,0-.1,0-.2,0-.4,0,0,0,0,0,0,0,0,0,0,.1,0,.2,0,0,0,0,0,0-.1,0-.2,0-.4,0,0,0,0,0,0,0,0,0,0,0,0,0-.1,0-.2,0-.4-.1,0,0-.2,0-.3,0,0,0,0,0,0,0,0,0,0,0,0,0,0,0,0,.1,0,.1,0,0,0,0,0,0,0,0,0,0-.1,0,0,0-.2,0-.2,0,0,0-.2,0-.3,0,0,0,0,0,0-.1,0,0,0-.2,0-.3,0-.2,0-.3.1-.5,0,0-.2-.1-.2-.2-.1,0-.1-.2-.2-.3,0,0,0,0,0,0,0,0,0,0,0-.1,0,0,0,0,0,0,0,0,.2,0,.3,0,.2,0,.3,0,.5.1,0,0,0,0,0,0,0,0,0,0,.1,0,0,0,0,0,0,0,.2-.2.5-.3.7-.5.3-.2.6-.4,1-.6.3-.1.5-.2.8-.3.2,0,.4,0,.6-.1.1,0,.2,0,.3,0,.2,0,.4,0,.6,0,.1,0,.2,0,.4,0,0,0,0-.1,0-.2ZM477,567.4c.1,0,.2.1.3.2.4.2.7.4,1.1.6.1,0,.2.1.4.2.1,0,.2,0,.2-.1,0-.3-.1-.5-.2-.8,0,0,0,0,0,0-.3-.2-.6-.3-.9-.5,0,0,0,0,0,0-.1,0-.3,0-.4-.1-.1.2-.2.5-.3.8ZM478.7,567.2s0,0,0,0c.5.2,1,.5,1.5.7,0,0,.1,0,.2,0,0,0,0,0,0,0,.1-.1.1-.2,0-.3-.1-.4-.3-.7-.6-1,0,0,0,0,0,0-.1,0-.2.1-.4.2,0,0,0,0-.1,0,0,0,0,0-.1,0-.1,0-.2,0-.3,0,0,0,0,0,0,0,0,0,0,.1-.2,0,0,0,0,0,0,0,0,0,0,.1,0,.2ZM476.7,566.5s0,0,0,0c0,0,0,0-.1,0,0,0,0,0,0-.1,0,0,0,0-.1,0-.2,0-.3,0-.5,0,0,0,0,0,0,0,0,0,0,.2,0,.2,0,0,0,0,0,0,.1,0,.2.2.4.3.2.1.3.2.5.3,0-.2,0-.5,0-.7ZM481.2,563.6c0,0-.2,0-.3,0,0,0,0,0,0,0,0,0,0,0-.2,0,0,0,0,0,0,0,0,0,0,0,0,0,0,0,0,0,0,.1,0,0,0,0,0,0,0,0,0,.1,0,.1,0,0,0,0,0,.1,0,0,.2,0,.2,0,0,0,0,0,0,0,0,0,0,0,0,0,0,0,.1-.1.2-.2,0,0,.2-.2.3-.2,0,0,0,0,0,0,0,0,0,0-.1,0ZM479.4,563.7c0,0,.2.1.2.2,0,0,0,.1.1.1,0,0,0,0,0-.1,0-.2,0-.3,0-.5,0,0,0,0,0,0-.1,0-.3,0-.4,0,0,0-.1,0-.2,0,0,0,0,0-.1,0,.2.1.3.2.5.3ZM475.8,565.7c0,.2,0,.4,0,.6.2,0,.4,0,.6,0-.2-.2-.4-.4-.6-.5ZM478.6,567s0,0,0,0c-.2,0-.4-.1-.6-.1.2.1.4.2.7.3,0,0,0-.1,0-.2Z"/>
      <path class="cls-2" d="M470,568.7s0,0,0,0c0,0,0-.1,0-.2,0,0,0,0,0,0,0,0,0,0,0,0,0,0,0-.1,0-.2-.1-.2-.2-.4-.2-.6,0-.2,0-.3,0-.5,0-.1,0-.2,0-.3,0-.2,0-.3.1-.4,0,0,0,0,0,0,0,0,0,0,0,0,0-.2,0-.3,0-.5,0-.1,0-.3,0-.4,0,0,0,0,0,0,0,0,0,0,0-.1,0,0,0,0,0,0-.1-.2-.2-.4-.3-.6-.1-.3-.3-.5-.3-.8,0,0,0-.2,0-.3,0-.2.1-.3.3-.2,0,0,0,0,.1,0,.2,0,.4,0,.6,0,.2,0,.3,0,.5.1.1,0,.2,0,.3,0,0,0,0,0,0,0,0,0,0,0,0,0,0,0,0-.1.1-.2.2-.1.3-.3.6-.2.2,0,.4.1.4.3,0,0,0,0,0,0,0,0,0,0,.1.1,0,0,0,0,0,0,0,0,0,0,0,0,0,0,0,0,.1,0,0,0,.2,0,.3,0,.1,0,.3,0,.4,0,.3,0,.6,0,.8,0,0,0,0,0,0,0,0,0,.1.2,0,.3,0,.1,0,.3,0,.4,0,.2-.1.3-.2.4,0,0-.1.2-.2.3,0,.1-.2.3-.2.4,0,0,0,0,0,.1,0,0,.1,0,.1.1,0,0,0,.1,0,.2,0,.3,0,.6,0,1,0,0,0,0,0,0,0,0,0,.2,0,.2,0,.2,0,.3,0,.5,0,.2,0,.4,0,.7,0,.1,0,.2-.1.3,0,0,0,0,.1,0,0,0,0,0,0,.1q0,0,.1,0s0,0,0,0c0,0,0,0,0,.1,0,0,0,0,0,0,0,0,0,0,0,0,0,0,0,0,0,0,0,0,0,.1-.1.1,0,0,0,0,0,0,0,0,0,0,0,0,0,.2,0,.3,0,.5,0,.1,0,.3,0,.4,0,0,0,0,0,0,0,0,0,0,0,0,0,0,0,0,0,0,0-.1,0-.2,0-.3,0,0,0,0,0,0,0,0,0,0,0,0-.4,0-.8,0-1.3,0-.7,0-1.3,0-2,0-.1,0-.1,0-.1.1,0,.1,0,.2,0,.3,0,0,0,0,0,0,0,0,0,0-.1,0,0-.3,0-.7,0-1,0,0,0,0,0,0ZM470.6,568.3c0,0,0,.2.1.3,0,0,0,0,0,.1.1,0,.3,0,.4,0,.3,0,.5,0,.8,0,.4,0,.8,0,1.2,0,0,0,0,0,.1,0,0,0,.1-.2.1-.3,0,0,0-.2,0-.3,0,0,0-.2,0-.3,0,0,0-.1,0-.2,0,0,0,0,0,0-.8.3-1.6.3-2.4,0,0,0,0,0,0,.1,0,.1,0,.3,0,.4M470.8,568.8c-.1,0-.2,0-.3,0,0,0-.1,0-.1.1,0,0,0,0,0,0,0,0,0,.1.1.1.3,0,.7,0,1,0,.3,0,.6,0,.9,0,.4,0,.7,0,1.1,0,0,0,.1,0,.1-.1,0,0,0,0,0,0,0,0,0-.1-.1-.1-.2,0-.5,0-.7,0-.3,0-.5,0-.8,0h0c-.4,0-.8,0-1.2,0ZM471.4,564.1c0-.2-.2-.3-.5-.3-.1,0-.2,0-.3,0,0,0-.1,0-.2,0,0,0,0,0,0,0,.2,0,.2.3.3.4,0,0,0,.1,0,.2,0,0,0,0,0,0,0,0,.2,0,.3,0,0,0,0,0,.1,0,0,0,0,0,.1,0,0-.1,0-.3,0-.4ZM473.5,563.9s0,0-.1,0c0,0-.2,0-.3,0-.1,0-.3,0-.4.1,0,0,0,0,0,0-.1,0-.1.2-.1.2,0,0,0,.2,0,.3,0,0,0,0,0,0,0,0,.2,0,.2,0,0,0,.1,0,.2,0,.1-.2.3-.4.4-.6ZM472.8,567.3c-.3,0-.7.1-1,.1-.3,0-.6,0-.9-.1,0,0-.2,0-.3,0,0,0,0,0,0,0,.2,0,.4.1.6.1.3,0,.5,0,.8,0,.3,0,.6,0,.9-.2,0,0,0,0,0,0-.1,0-.2,0-.3,0Z"/>
      <path class="cls-2" d="M477.2,566.6c-.1.2-.2.5-.3.8.1,0,.2.1.3.2.4.2.7.4,1.1.6.1,0,.2.1.4.2.1,0,.2,0,.2-.1,0-.3-.1-.5-.2-.8,0,0,0,0,0,0-.3-.2-.6-.3-.9-.5,0,0,0,0,0,0-.1,0-.3,0-.4-.1Z"/>
      <path class="cls-2" d="M478.7,567c0,0,0,.1,0,.2,0,0,0,0,0,0,.5.2,1,.5,1.5.7,0,0,.1,0,.2,0,0,0,0,0,0,0,.1-.1.1-.2,0-.3-.1-.4-.3-.7-.6-1,0,0,0,0,0,0-.1,0-.2.1-.4.2,0,0,0,0-.1,0,0,0,0,0-.1,0-.1,0-.2,0-.3,0,0,0,0,0,0,0,0,0,0,.1-.2,0,0,0,0,0,0,0Z"/>
      <path class="cls-2" d="M476.6,567.2c0-.2,0-.5,0-.7,0,0,0,0,0,0,0,0,0,0-.1,0,0,0,0,0,0-.1,0,0,0,0-.1,0-.2,0-.3,0-.5,0,0,0,0,0,0,0,0,0,0,.2,0,.2,0,0,0,0,0,0,.1,0,.2.2.4.3.2.1.3.2.5.3Z"/>
      <path class="cls-2" d="M481.4,563.6c0,0,0,0-.1,0,0,0-.2,0-.3,0,0,0,0,0,0,0,0,0,0,0-.2,0,0,0,0,0,0,0,0,0,0,0,0,0,0,0,0,0,0,.1,0,0,0,0,0,0,0,0,0,.1,0,.1,0,0,0,0,0,.1,0,0,.2,0,.2,0,0,0,0,0,0,0,0,0,0,0,0,0,0,0,.1-.1.2-.2,0,0,.2-.2.3-.2,0,0,0,0,0,0Z"/>
      <path class="cls-2" d="M478.9,563.3c.2.1.3.2.5.3,0,0,.2.1.2.2,0,0,0,.1.1.1,0,0,0,0,0-.1,0-.2,0-.3,0-.5,0,0,0,0,0,0-.1,0-.3,0-.4,0,0,0-.1,0-.2,0,0,0,0,0-.1,0Z"/>
      <path class="cls-2" d="M476.5,566.2c-.2-.2-.4-.4-.6-.5,0,.2,0,.4,0,.6.2,0,.4,0,.6,0Z"/>
      <path class="cls-2" d="M478.7,567.2c0,0,0-.1,0-.2,0,0,0,0,0,0-.2,0-.4-.1-.6-.1.2.1.4.2.7.3Z"/>
      <path class="cls-2" d="M471.9,568.8c-.4,0-.8,0-1.2,0-.1,0-.2,0-.3,0,0,0-.1,0-.1.1,0,0,0,0,0,0,0,0,0,.1.1.1.3,0,.7,0,1,0,.3,0,.6,0,.9,0,.4,0,.7,0,1.1,0,0,0,.1,0,.1-.1,0,0,0,0,0,0,0,0,0-.1-.1-.1-.2,0-.5,0-.7,0-.3,0-.5,0-.8,0h0Z"/>
      <path class="cls-2" d="M471.4,564.5c0-.1,0-.3,0-.4,0-.2-.2-.3-.5-.3-.1,0-.2,0-.3,0,0,0-.1,0-.2,0,0,0,0,0,0,0,.2,0,.2.3.3.4,0,0,0,.1,0,.2,0,0,0,0,0,0,0,0,.2,0,.3,0,0,0,0,0,.1,0,0,0,0,0,.1,0Z"/>
      <path class="cls-2" d="M473.1,564.5c.1-.2.3-.4.4-.6,0,0,0,0-.1,0,0,0-.2,0-.3,0-.1,0-.3,0-.4.1,0,0,0,0,0,0-.1,0-.1.2-.1.2,0,0,0,.2,0,.3,0,0,0,0,0,0,0,0,.2,0,.2,0,0,0,.1,0,.2,0Z"/>
      <path class="cls-2" d="M473.1,567.2c-.1,0-.2,0-.3,0-.3,0-.7.1-1,.1-.3,0-.6,0-.9-.1,0,0-.2,0-.3,0,0,0,0,0,0,0,.2,0,.4.1.6.1.3,0,.5,0,.8,0,.3,0,.6,0,.9-.2,0,0,0,0,0,0Z"/>
    </g>
    <path class="cls-2" d="M494.7,569.1c2.8,0,5.6.3,8.4.7-1,.7-2.4,1-2.1,2.7,0,0-.5.3-.8.4-.6.2-1.2.4-2,.7-1.1-.8-2.4-1-4,0-.5.3-1.4-.2-2.2-.3-1.9-.1-2.1.1-2,1.9-.9-.2-1.7-.3-2.6-.5-1.1-.3-2-.2-3.1.5-1.5.9-3.4.4-4.9-.2-1.3-.5-2.2-1.2-3.2.4-.4.6-1.4.8-2,.8-1.1-.4-2.2-.7-3.6-1.2.5-.4,1.1-.6,1.4-1.1.4-.6.6-1.3,1-1.9-.6-.2-1.1-.5-1.7-.6-.6-.2-1.2-.2-2.1-.4,3.3-2.4,7.7-2.9,11-1.6.4-1.2,1-2.3,1.1-3.5.2-1.1.6-1.4,1.6-1.3.2,0,.5,0,1.2-.2-1-.9-1.6-1.5-2.4-2.1.2-.4.4-1,.7-1.6.4,0,.9,0,1.3-.1.4-2,0-2.8-1.9-3.4.1-.7.3-1.4.5-2.2.6,0,1.2.2,1.7.2.9-2.2-2-3-1.7-5,.4,0,.8-.2,1.3-.3-.6-1.1-1.1-2.2-1.6-3.1.8-.2,1.4-.3,2-.4-.3-.7-.5-1.4-.8-2.1-.3-.6-.7-1-.4-1.2.3-.5.7-1,.7-1.4,0-.2-.7-.5-1-.8-.3-.3-.4-.6-.6-.9,1.8-1.7,1.8-1.8.6-3.9,1.9-1.6,1.9-1.5,0-3.7-.3-.3-.3-1.4,0-1.6,1.3-1.2,1.1-2.2-.4-3,.1-.4.1-.8.3-1,1.4-1.2,1.8-2.6.7-4.2,0-.1.4-.6.6-.9.3-.5.7-1,1-1.4-.5-.1-1-.2-1.5-.3-.1,0-.2-.2-.4-.3,0-.8,1.7-1.3.2-2.2,1.9-1.4,1.9-1.5.4-2.8.2-.3.5-.6.7-1,.2-.4.3-.9.5-1.4-.5,0-.9-.1-1.4-.2.9-.7,2.7-.9,2.1-2.9-1.5.3-2.2-.5-2.4-1.9,0-.2-.4-.3-.6-.3,0,0-.3.3-.3.5-.5,2.5-.8,5-1.5,7.4h0c-1.6,2.7-1.7,1.3-1.7,1.3.3-.9,0-1.1-1.8-1.4.5-1.6.9-3.2,1.6-4.6,1-2.1,1.3-4.3,1.1-7-.8.4-1.6.6-2,1.1-1.1,1.6-1.5,3.8-2.7,5.3s-.9,2.1-1.1,3.3-.2.2-.5.5c-.1-.5,0-.9-.3-1.2-.2-.3-.6-.5-.9-.6-.2,0-.6.2-.7.5-.6,1.3-1,2.6-1.7,3.8l-1,1c0-.4-.3-.7-.5-1.1-.3.2-.6.4-.9.6-.2,0-.3.2-.4.3-.6-1.2-.8-2.6-2.7-2.8.8-.8,1.5-1.6,2.2-2.4.4-.4.6-1,.9-1.5-.6,0-1.1-.1-1.7-.2-.1,0-.3,0-.8,0,.5-.6.9-1,1.3-1.4,1.1-1.1,2.3-2.1,3.4-3.2.4-.4.6-.8,1-1.3-.5-.2-.9-.5-1.2-.6,1.2-1.3,2.5-2.6,3.7-4,.8-.9,1.7-1.9,2.4-2.9.3-.5.4-1.3.3-1.9,0-.4-.3-.9-.6-1-.3-.1-.8,0-1.1.3-1.8,1.4-3.6,2.8-5.3,4.2-.2.2-.4.5-.6.8-.4.6-.7,1-1.7.8-1.4-.4-2.1.5-2,1.9,0,.5.3.9.2,1.4,0,.7-.1,1.6-1.3,1.5-1.4-.2-1.9.5-1.9,1.8,0,.3-.2.6-.2.6-.2.3-1-.9-1.5-.9-.9,0-1.4.7-1.5,1.7-.3,2.1-.8,4.2-1.3,6.2-.7-.4-1.3-.7-1.9-1.1l-.4,1.8h-.3s-.5-1.7-.5-1.7c-.4,0-.8-.1-1.2-.2.2-.8,1.1-1.6,0-2.4-.2-.2.4-1.7.9-2.3,1.4-2,2.8-4,4.9-5.4.9-.5,1.6-1.4,2.3-2.2,1.1-1.5,2.1-3.1,3-4.9s0-.3-.2-.3c-2.9,1.1-7.6,4.2-7.5,3.9,0-1.5,2.8-1.1,2.1-3.2s-.2-.2-.3-.1c-.9.2-1.5.5-2.3.7-.4.2-.1-.1,0-.3,0-.2.3-.6,0-.8-.4-.3-1.2-.3-1.5-.1-1.6,1-3.4.9-5.1.8-.3,0-.6-.2-.9-.3-.6-.3-1.1-.5-1.7-.8-.5-.2-1-.5-1.5-.7s-.2-.5,0-.5c.9-.3,1.8-.6,2.7-.9.4-.2.8-.4,1.2-.6s.1-.2,0-.3c-.4-.2-.8-.4-1.2-.7-.1,0-.7-.3-.4-.4,1.8-.3,3.6-.6,5.4-.9,1.5-.3,3-.7,4.6-1.1,1-.2,2.1-.5,3.1-.6,1.5-.3,3.1-.5,4.6-.7.7-.1,1.5,0,2.2-.2.4-.1.7-.4,1.1-.7s.2-.5,0-.6c-.3-.2-.6-.4-1-.5-1.6-.4-3.2-.8-4.7-1-.7-.1-1.4-.1-2.2-.1s-.2-.2-.1-.3c.2-.2.4-.4.3-.6-.1-.4-.4-1.2-.7-1-1.6,1-3.2.5-4.4-.7s0-.2,0-.3c.9-.4,1.1-.9.5-1.3-.4-.3-.9-.4-1.4-.7-.3-.3-.2-.5.1-.5.3,0,.7.1,1,.3,1.7,1.4,2.7,1.3,4.4-.3.2-.2.9-.2,1.3,0,.8.3,1.6.8,2.4,1.2,1.9.9,2,1,3.2-.4s.4-.2.6-.2c.7.1,1.5.3,2.2.3.3,0,.7-.4.8-.6,0-.2-.2-.6-.4-.8-.6-.5-4.3-3.4-5.7-4.5s0-.2.1-.2c1,.3,3,1.2,3.5,1.3s.3,0,.4.2c1.3,1,2.7,2.9,4.2,4.1s.5,0,.6-.2c0-.4.1-.6,0-.8-1.1-2.5-2.1-5-4.3-6.9-1-.9-1.6-2.2-2.2-3.4.8.5.8,2.1,2.5,1.7-.5-1.5-.2-3.1-2-4.2-.9-.5-1.1-2.1-1.8-3.5,1.9.5,1.9,2.6,3.8,2.7,0-1.3-.2-2.4-.3-3.7,1.1,1.4,1.1,3.4,3.1,4l.2-1.8h.5c.7,1.2,1.4,2.6,2,3.9.5,1,1.1,2,2.1,2.4-.2-1.6-.4-3-.7-4.4h.2c0,0,4,6,4,6h.5c.2-1.3.4-2.5.6-3.6.2,0,.3,0,.5,0-.6,3.5,2.5,5.4,3.3,8.3,0,.3.8.7.9.6.4-.3,1-.7,1.1-1.2.9-3.1,1.7-6.3,2.4-9.5.1-.6.2-.8.5-1.4,0,.7.2,1.1.4,1.8,0,.3.4.5.5.8.2-.2.6-.5.7-.8.8-2,1.5-4,2.2-6,.3-1,0-1.4.5-2.4,0,.6.7.7.8,1.7,1.4-.9,2-3.3,4.1-1.7,1.3,2.3-1.1,3.9-1.8,5.9-.3.9-.7,1.7-1,2.6,1.3.6,1.4,0,1.7-.7.3-.7,1-1.4,1.6-2.1.9-.5-.3,3-.8,4.6-.2.6-.7.8-.8,1.4.6-.1,1.2.2,2.1,0-1.9,4-4.1,8.2-6,12.3l.5.4c.6-.5,1.1-1,1.7-1.4,1.5-1,3-1.8,4.4-2.8,3.5-2.4,6.8-5.1,9.4-8.6.5-.6,1.1-1.1,1.7-1.7,1-1,2.1-1.9,3.1-2.8.2-.2.6-.3,1-.5.2,1.9-1.3,2.9-1.9,4.6,1.5-1.1,2.7-1.9,3.9-2.8l.2.2c-.5.6-.9,1.1-1.3,1.7-.4.6-.6,1.3-1.1,1.9-.4.5-.8.9-1.3,1.4-.5.6-1,1.1-1.7,2,1.2.3,2,.5,2.8.7-.8.8-1.6,1.4-2.3,2.2-.3.3-.3.8-.5,1.2.5,0,1,.3,1.4.2.5,0,1-.3,1.6-.2-1.4.8-2.8,1.5-4.1,2.3-1.2.6-2.3,1.3-3.4,1.9-.4.2-.6.6-.9,1,.5.3,1.1.8,1.6.8,1.7-.2,3.5-.6,5.2-.9.3,0,.7-.2.8,0,1.2,1.4,2.7.4,4.1.7.1.3.2,1.1.5,1.3.3.2,1-.3,1.5-.4.3,0,.6,0,1,0,1,0,2,0,2.2-1.1,1.3.3,2.6.5,3.8.7.5.8.9,1.6,1.5,2.6-1.8.8-2.9,3.3-5.3,2.9-2.2-.4-4.3,0-6.5.4-.5.1-1.1.3-1.6.4-.2,1.4-1.5,2.2-3.1,1.8-.6-.2-1.1-.3-1.8-.5-.4,1.2-.2,1.9.9,2.2,1.7.5.7-.3,2,0s1.3.2,1.8.2c1.2,0,.4,0,2-.2.4.5.3.1.5,1.1-.4,1-.3,1.4.8,1.6,1,.2,1.9.8,2.9,1.2.8.3,1.6.4,2.7,1.4-1,.4-2-.2-3.1-.1.1.5,1.4.7,1.5.9-.9,0-5.1-1.9-6.1-1.4s2.6,2.6,1.8,2.4c-1.2-.3-1.4-.5-2.5-1.2-2.9-1.6-5.9-3.3-8.8-4.8-.3-.2-.8,0-1.3.1.1.4.2.9.5,1.2,2.3,2.9,2.8.9,5,3.8.5.7,1.3,1.5,1.7,2.3-.1.1,3.9,1.4,3.2,4.3-.5-.5-3.3,0-3.8-.6-1-1.1-2-2.3-3-3.3-.8-.7-1.7-.4-2.2.8-.2-.3-.3-.7-.5-.9-.4-.3-5.4-3.7-5.8-3.9,0,0-.5.3-.5.5,0,.6,4.6,4.6,5,4.8.8.4,1.3,1.1,2.3,1.3.6.1,1.2.3,1.5.7,1.2,1.5,2,1.5,2.9,3.2-1.5-1.5-2,0-3.5-1.5-.1.1-.7-.6-.9-.4,0,1.9,1,2.3,2.5,3.8-.3-.2-.9.1-1.1,0-.3-.3-.5-.4-.9-.6-.4-.1-.6-.7-1.2-.7.6,1.4,1.1,2.6,1.4,3.5-.7.9-1.2,1.5-1.7,2.1-.2-.7-.3-1.7-.8-2.5-.4-.7-1.2-1.3-1.8-1.9l-.4.2v6.2c-1.2-.9-2.1-1.6-2.9-2.2,0-.9.1-1.7.2-2.5-1.2,0-1.1-8.3-3.1-7.6,0,.3-1,1.3-1,2.6s1.6.4,1,.7-.5.9-1,1.3,1.3-.3,1,.1-1.1.9-1,1.5,1.2-.2.9,0c-.6.4-1.6,1.5-1,1.5,1.8.2.5.7.5.7.1,0,1.5.3,1.6.2-.2.4-.4.7-.5.9-1,.4-1.7.7-2.5,1-.7-1.3-1.4.2-2.2.3,0-.5.1-1,.2-1.5h-1.7c.3-.5.6-1,1.1-1.7h-2.4c0-.9,0-1.7.1-2.6h-1.3c-.3-.8-.5-1.7-1-2.5-.2-.3-.9-.4-1.3-.3-.2,0-.5.6-.5,1,0,1.7.5,3.5-.5,5.2-.1.2.2.9.4,1,.9.4,1.4,0,.9.6-.5.6-.6.8-1.2,1.7.4.5.6.8,1.5.9-.3.7-.6,2.1-.8,2.8-.1.4-.2.9-.1,1.3.1.4.7.9.6,1.2-.2.6-.7,1.2-1.1,1.7-.3.4-.6.7-.9,1.1.4.2.9.4,1.3.5.5,0,1.1,0,1.6,0l.2.4c-.6.7-1.1,1.5-1.7,2.2-.3.5-.9,1.3-.7,1.5.4.5,1.5.1,2.2.4.4.6-.5,1-1,1.6-.1,0-.3,0-.4,0-.6.4-1.7.8-1.7,1.3-.1,1.3,1.1.8,1.8.9.4,0,.8,0,1.3,0,.2,1,.4,1.8-.7,2.3-.4.2-1.6.9-1.9,1.3-.7,1,1.6,1.2,2.7,1.7-1.1,1.4-2,1.9-3.1,3.4,2-.4.9-.4,3.4-.5-.9.8-.9,1.4-1.8,2.2-.2.2-.9,1.3-.9,1.5.1.3.2.2.5.2.9,0,.7-.2,2.1-.3-.8.8-1.2,1.4-1.9,2-.7.6-1,1.4,1,1.7.2.6-1.7,2.7-1.9,3.4.6-.6.5-.9,2.7-.4-.4,1.2-1.8,1-2.1,1.9.5,0,.7.1.9.2.5.2,1,.5,1.5.7-.4.7.3,1.9-1,2.4-.7.2-1.8.3-1.7,1.6,0,.3.3.8.5.8.7,0,1.5-.1,2.4-.2-.7.7-1.4,1.3-2,2.1-.4.4-.7,1-1.1,1.4.6.2,1.2.6,1.8.6.5,0,.9-.3,1.4-.5.5,1.1,1.1,3.2,1.6,3.8s2.9,1.1,2.9,1.1Z"/>
  </g>
  <path class="cls-1" d="M709.7,187.6c.1,2.5-2,5.1-4.4,5.7-2.6.6-5.4-1-6.5-3.7-.9-2.1-.2-4.9,1.5-6-2,3.2-1.3,6.4,1.6,8,3.1,1.8,5.6.5,7.8-4.1Z"/>
  <path class="cls-1" d="M704.1,190.7c1.9-.9,3-2.4,3.7-4.5.1.6.2.9.3,1.3,0,0,.1,0,.2,0,.2-.6.3-1.2.5-1.9.7,1.4,0,3.9-1.5,5.2-1.4,1.2-3.3,1.3-4.6.4.8,0,1.6-.1,2.5-.2,0,0,0-.1,0-.2-.3,0-.6,0-1,0Z"/>
  <path class="cls-1" d="M707.5,179.9c-1.2,1.7-2.9,2.1-4.2,1.3-1.2-.7-1.5-2-.7-3.4,0,1.3.4,2.2,1.6,2.6,1.1.4,2.1,0,3.3-.5Z"/>
  <path class="cls-2" d="M754.8,167.6c.2,1.2.5,2.5.6,3.7.4,4.5-.4,8.7-3.9,12,1,1.2,2,2.4,3.1,3.5,2.3,2.3,2.2,5.3.8,7.7-2,3.2-4.6,5.9-7.3,8.5-3.8,3.5-7.8,6.9-12.3,9.5,0,0,0,0,0,.2,8.4-4.6,15.4-10.8,21.3-18.3.1,0-.7,1.6-1.3,2.3-1.8,2.1-3.6,4.2-5.5,6.2-1.2,1.3-2.4,2.5-3.7,3.6-3.7,3.2-7.5,6.3-12,8.4-3.3,1.5-5.8,1.1-8.1-1.8-5-6.1-9.8-12.4-14.8-18.5-1.1-1.4-1.6-2.6-.5-4.1.2-.2.1-.6.2-.9,0,0,.2,0,.3,0,1.1,1.4,2.1,2.9,3.2,4.3,4.6,5.8,9.2,11.5,13.9,17.2,1.6,1.9,3,2.3,5.2,1.1,2.3-1.3,4.5-2.8,6.6-4.4,4.1-3.1,7.9-6.6,11.4-10.5.7-.8,1.4-1.6,1.9-2.5,1.2-1.8,1.1-3.3-.4-4.8-3.2-3.3-6.5-6.6-9.8-9.9-4-3.8-8-7.6-12-11.4,2.4-.3,4.2-1.3,4.9-3.7.7-2.3,0-4.2-1.7-5.9,3.3-2.2,6.6-3.8,10.6-2.5,2.9.9,5,3,6.7,5.4.6.8,1,1.6,1.6,2.5l1.2,3.1ZM736.2,167.8c1,1,2,2,3.1,3,2.7,2.7,5.4,5.4,8.1,8.2,1.3,1.3,2.7,1,3.4-.6.2-.4.4-.9.4-1.3,1-5.1-.2-9.6-3.8-13.3-2.5-2.6-5.6-3-8.7-1.4-.5.3-.7.6-.7,1.2,0,.8-.2,1.6-.5,2.4-.3.7-.8,1.3-1.3,1.9ZM745.4,158.9c-2.1-1.3-4.3-1.5-6.6-.8-.2,0-.4.2-.5.3-.1.2-.3.5-.2.8,0,.1.4.3.7.2.5,0,1-.2,1.5-.3,1.7-.4,3.4-1,5.2-.3Z"/>
  <path class="cls-1" d="M725.3,158.7c-.8-.2-1.6-.4-2.6-.6.8-.2,1.4-.3,2.1-.5.9.3,1.8.6,2.7,1,.5.9,1,1.8,1.4,2.8.2.5,0,1.1-.1,1.6-.6-1.4-.9-2.9-2.4-3.7-.3-.2-.6-.4-1-.5Z"/>
  <path class="cls-1" d="M734.9,163.9c-.4,1.4-1.3,2.5-2.9,2.6-.5,0-1.1-.1-1.6-.3,3.3-.9,4-2,3.2-5.2,1.1.7,1.2,1.8,1.3,2.8,0,0,0,0,0,0Z"/>
  <path class="cls-1" d="M728.1,168.6c-1.6,1.3-2.2,1.4-3.7.6,2.1-.1,3.2-1.2,3.4-3.1,0,0,.2,0,.3,0,0,.6.1,1.2.2,1.9,0,.2-.2.4-.3.6Z"/>
  <path class="cls-1" d="M714.8,178.5c1.8,0,3.4-.5,4.7-1.8,1.7-1.6,2.6-3.5,1.7-5.9,1.6,1.3,1.2,3.9.2,5.4-1.5,2.2-4.5,3.3-6.5,2.3h0Z"/>
  <path class="cls-1" d="M726.6,186.7c2,.6,3.6,1.6,4.6,3.6.4.7.3,1.5-.2,2.2-.5.6-1.3.8-2,.6-.4-.1-.8-.5-1.2-.8,0,0,.1-.2.2-.2.2.1.4.3.6.3.5,0,1.1.1,1.4-.1.3-.2.6-.9.4-1.3-.3-.7-.8-1.5-1.3-2.1-.7-.8-1.5-1.4-2.3-2.2Z"/>
  <path class="cls-1" d="M712.3,185.1c-.4-.3-.7-.6-1-.9-.3-.3-.5-.7-.6-1.1,1.4,1.4,3,1.4,4.7,1.2,1.8-.2,3.1-1.2,4.4-2.5-.1.3-.2.5-.3.8-1.2,2.2-3.9,3.3-6.3,2.6-.3,0-.6,0-.8,0,0,0,0,0,0,0Z"/>
  <path class="cls-1" d="M714.8,178.5c-2.3,1.6-4,1.3-5.6,0-.7-.5-1.2-1.2-1.1-2.2,2.4,2.9,4.4,3,7.8.2-.4.7-.8,1.3-1.1,2,0,0,0,0,0,0Z"/>
  <path class="cls-1" d="M712.3,185.1s0,0,0,0c2.4,1.2,4.5.6,6.6-1-.5,1.5-1.6,2.1-3,2.5-1.7.4-3.2-.2-4.3-1.7.3,0,.6.1.8.2Z"/>
  <path class="cls-1" d="M707.3,175.1c-1-2.7-2.9-3.7-5.6-3,1-1.1,2.6-1.4,3.9-.7,1.4.7,2.1,2.3,1.7,3.7Z"/>
  <path class="cls-1" d="M729.6,180.8c.8.6,1.6,1.1,2.3,1.8.7.7.6,1.6,0,2.2-.6.6-1.5.6-2.3,0-.2-.2-.4-.4-.6-.7.3,0,.7.3,1,.3.3,0,.8-.1,1-.4.1-.2,0-.8-.1-1-.5-.7-1.1-1.3-1.6-1.9,0,0,.1-.2.2-.2Z"/>
  <path class="cls-1" d="M717.2,168.5c-1.8-2.3-3-2.5-5.1-.9,0-1.2,1.3-2.2,2.7-2.1,1.5.1,2.6,1.5,2.4,3Z"/>
  <path class="cls-1" d="M722.7,168.9c0-2.7-.7-3.6-3.5-4,1-.8,2.4-.8,3.3.1,1.1,1,1.2,2.5.2,3.8Z"/>
  <path class="cls-1" d="M722.8,170.6c1.3.5,2.2,1.3,2.4,2.8.1,1.1-.5,1.8-1.4,2.3,1-2,0-3.5-1-5.1Z"/>
  <path class="cls-1" d="M725.3,158.7c.3.2.6.4,1,.5.7.8,1.3,1.6,1.1,3-.9-1.8-2.3-2.7-4-3.3,0,0,0-.2,0-.2.6,0,1.3,0,1.9,0Z"/>
  <path class="cls-1" d="M688.2,198.7c1.3,2.1,4.5,3.2,6.9,2.2,2.5-1,3.9-3.9,3.3-6.7-.5-2.3-2.6-4.1-4.6-4.1,3.4,1.5,4.7,4.5,3.2,7.6-1.6,3.2-4.4,3.5-8.8,1Z"/>
  <path class="cls-1" d="M694.7,198.1c-2.1.3-3.8-.3-5.6-1.6.2.6.4.9.5,1.2,0,0,0,0-.1.1-.5-.4-1-.8-1.5-1.3.2,1.6,2.2,3.2,4.2,3.4,1.8.2,3.5-.8,4-2.3-.7.4-1.4.8-2.1,1.2,0,0,0-.1-.1-.2.3-.2.5-.4.8-.6Z"/>
  <path class="cls-1" d="M685.8,191c1.9.8,3.6.2,4.2-1.3.5-1.3.1-2.5-1.3-3.2.7,1.1.9,2.1.1,3.1-.7,1-1.8,1.2-3.1,1.4Z"/>
  <path class="cls-1" d="M639,204.2c0-1-.1-1.9,0-2.9,0-3,.6-5.8,2.5-8.2,2.6-3.3,6.2-3.8,10.2-3.9-.5,2.3,0,4.3,1.9,5.8,1.9,1.6,4,1.4,6.1.3-1.2,5.4-2.4,10.8-3.6,16.2-.9,4.5-1.8,9.1-2.6,13.7-.4,2.1.5,3.4,2.4,4.2,1,.4,2,.7,3,1,5,1.3,10.1,2.1,15.3,2.3,2.6.1,5.3.2,8,0,2.5-.2,3.5-1.3,3.7-3.8.6-7.3,1.2-14.7,1.8-22.1.1-1.8.2-3.6.2-5.4,0,0,.1-.1.2-.2.2.2.4.5.7.6,1.8.6,2.1,1.9,1.9,3.7-.7,7.9-1.2,15.8-1.9,23.6-.3,3.6-2.1,5.4-5.7,6-4.9.9-9.8.4-14.6-.2-1.7-.2-3.4-.5-5.1-.9-2.7-.6-5.4-1.3-8-2.1-.8-.2-2.4-1.1-2.3-1.1,9.1,2.9,18.4,4.1,27.9,3.2,0-.1,0-.1-.1-.1-5.2.4-10.4-.2-15.5-1-3.7-.6-7.4-1.3-10.8-2.9-2.5-1.2-4.3-3.6-3.7-6.8.3-1.5.4-3,.6-4.6-4.8-.8-7.8-3.7-10-7.7-.6-1.1-1-2.3-1.6-3.4-.2-1.1-.5-2.2-.7-3.3ZM653.1,196.3c-.7-.4-1.3-1-1.8-1.7-.4-.5-.7-.7-1.3-.6-3.5.4-5.8,2.5-6.4,6-.8,5.1.6,9.5,4.3,13.1.3.3.7.6,1.1.9,1.6,1,2.9.4,3.2-1.4.7-3.8,1.4-7.5,2.1-11.3.3-1.4.6-2.8.9-4.2-.8-.3-1.6-.5-2.2-.9ZM647.1,192.2c.5-.2.9-.3,1.4-.6.2-.1.5-.5.4-.6-.1-.2-.4-.4-.6-.5-.2,0-.4,0-.6,0-2.3.7-4,2.1-5,4.4,1.1-1.6,2.8-2.1,4.5-2.7Z"/>
  <path class="cls-1" d="M659.1,183.5c.6-.6,1.1-1.2,1.8-2-.7.3-1.3.5-2,.8-.6.8-1.1,1.5-1.7,2.3.1,1,.2,2.1.4,3.1.1.5.6.9,1,1.3-.3-1.5-.9-3,0-4.4.2-.3.3-.7.5-1Z"/>
  <path class="cls-1" d="M654.1,193.2c1.2.9,2.4,1.3,3.8.5.5-.3.8-.7,1.2-1.1-3.2,1.1-4.4.6-5.5-2.5-.5,1.2,0,2.1.5,3.1,0,0,0,0,0,0Z"/>
  <path class="cls-1" d="M662.3,193.3c2.1.2,2.6,0,3.4-1.6-1.8,1-3.3.8-4.6-.7,0,0-.1.1-.2.2.3.6.6,1.1.9,1.7.2.1.4.2.6.4Z"/>
  <path class="cls-1" d="M679,194c-1.5.9-3.1,1.5-4.9,1.1-2.3-.4-4.1-1.5-4.7-4-.6,2,1.2,3.9,2.9,4.6,2.4,1,5.5.2,6.7-1.8h0Z"/>
  <path class="cls-1" d="M673.8,207.4c-1.3,1.6-2.1,3.4-1.8,5.5.1.8.6,1.4,1.4,1.7.8.2,1.5,0,2-.6.3-.4.4-.9.6-1.3,0,0-.2,0-.3-.1,0,.2-.1.5-.3.6-.4.3-.8.7-1.2.7-.4,0-1-.5-1.1-.8-.2-.8-.2-1.6,0-2.4.1-1,.5-2.1.7-3.1Z"/>
  <path class="cls-1" d="M684.7,198.1c.1-.4.3-.9.4-1.3,0-.4,0-.8-.1-1.3-.3,1.9-1.7,2.9-3.2,3.6-1.6.8-3.3.7-5,.4.2.2.5.3.7.5,2.2,1.1,5,.5,6.7-1.3.2-.2.4-.4.6-.6,0,0,0,0,0,0Z"/>
  <path class="cls-1" d="M678.9,194c2.8,0,4.1-1.2,4.6-3.1.2-.8.3-1.7-.3-2.4-.3,3.8-2,4.9-6.3,4.5.7.3,1.4.7,2.1,1,0,0,0,0,0,0Z"/>
  <path class="cls-1" d="M684.7,198.1s0,0,0,0c-1.3,2.3-3.4,3-6,2.9,1.2,1,2.5.8,3.9.4,1.6-.6,2.5-1.9,2.6-3.8-.2.3-.4.4-.5.6Z"/>
  <path class="cls-1" d="M683.2,187.1c-.7-2.8.3-4.6,2.9-5.6-1.4-.4-2.9.3-3.6,1.6-.7,1.4-.5,3.1.7,4Z"/>
  <path class="cls-1" d="M668,204.2c-.3.9-.8,1.8-.9,2.8-.2.9.4,1.7,1.2,1.8.8.2,1.6-.3,1.9-1.2,0-.3.1-.5,0-.9-.2.3-.4.6-.7.8-.3.2-.8.4-1,.2-.2-.1-.5-.6-.5-.9,0-.8.2-1.7.3-2.5-.1,0-.2,0-.3,0Z"/>
  <path class="cls-1" d="M671.3,187.1c.2-2.9,1-3.8,3.7-3.6-.7-1-2.3-1.1-3.4-.2-1.2.9-1.3,2.7-.3,3.8Z"/>
  <path class="cls-1" d="M667,190.4c-1.6-2.2-1.4-3.4.7-5.3-1.3-.1-2.4.7-2.7,2-.3,1.4.4,2.7,2,3.3Z"/>
  <path class="cls-1" d="M667.9,192c-.8,1.1-1.1,2.4-.4,3.6.5,1,1.4,1.2,2.5,1.2-2-1.1-2-2.9-2.1-4.8Z"/>
  <path class="cls-1" d="M659.1,183.5c-.2.3-.3.7-.5,1-.1,1.1-.2,2.1.8,3.1-.3-2,.4-3.5,1.4-4.9,0,0-.1-.1-.2-.2-.5.3-1.1.7-1.6,1Z"/>
  <path class="cls-2" d="M751.7,191.3c-.4-.5-.7-.9-1.1-1.4-5.7-5.8-11.3-11.7-17-17.5-1.2-1.3-2.6-2.5-4.1-3.9,0,2.1-1.9,2.2-2.8,3.2.7,1,1.1,1.9.5,3-.5.9-.1,1.4.5,2,1.7,1.5,3.3,3.1,4.9,4.7.5.5.9,1.3,1.1,2.1.4,1.2-.1,2.1-1.5,3.1-.7.5-1.5.5-2.4-.3-.9-.7-1.8-1.5-2.6-2.2-.2-.2-.3-.4-.5-.6,1,.7,2,1.6,3,2.3,1,.8,1.8.7,2.7,0,1.2-1,1.5-1.8.8-3-.6-1-1.3-1.9-2.1-2.7-1.4-1.4-2.8-2.6-4.3-3.9-.4-.4-.5-.7-.2-1.2.6-.9.5-1.8,0-2.8-.7-1.2-.7-1.3.7-1.7.9-.3,1.7-.8,2-1.9.1-.6.6-.8,1.1-.7.4,0,.9,0,1.3.1,1.9,0,4-1.5,4.5-3.3.8-3-1.1-6.1-4.2-6.8-1.3-.3-2.5-1.1-3.9-.8,0,0-.2,0-.3,0-1.6-1-3.4-1-5.2-.8-.7.3-1.3.5-2,.8,0,0-.1.2-.2.3-2,1.5-3.3,3.4-3.1,6,0,.7-.4.9-1,.6-1.7-.6-3.3-.3-4.6.9-1,.9-1.9,1.9-2.8,2.9-2.4-1-2.7-.9-4.6,1-.2.2-.5.3-.7.3-3.8.4-5.6,4.5-3.5,7.6.2.3.3.6.4.9.2,1.3.3,2.6.5,4-1.7.4-3,1.6-3.6,3.3-1,2.8-.2,5.3,1.7,7.5,1.8,2.1,4.1,3,6.9,2.4.5-.1.9,0,1.1.4.5,1,1,2,1.4,3,.3.6.6,1.3,1,1.9.8,1,2.3,1,3.3.1.8-.7.8-1.7-.2-2.8-1-1.1-2.1-2.2-3.2-3.3-.4-.4-.4-.8-.1-1.3.8-1.5,1.6-3.1,2.3-4.7.3-.7.6-.8,1.3-.6,1.1.3,2.2.5,3.3.5,1.2,0,2-.9,2.8-1.7,1-.9,1.9-1,2.9,0,.8.7,1.4,1.6,2.1,2.5-.7-.6-1.3-1.4-2-2-.9-.8-1.8-.8-2.7,0-.2.2-.4.4-.6.6-1.3,1.2-2.7,1.6-4.4,1.1-.3,0-.7-.2-1.1-.3.3.4.5.7.7,1,3.4,4.4,6.8,8.7,10.3,13.1,2.1,2.6,4.3,5.1,6.4,7.6.5.5,1,1,1.8.7.8-.3,1.6-.8,2.5-1.2,0,0,0,0,0,0l1.6-1c.2-.1.5-.5.7-.6,4-2.9,7.7-6,11.1-9.6,1.3-1.3,2.4-2.7,3.5-4.1,1-1.2.9-1.7,0-2.9ZM720,184.2c-2.1,4.1-6.5,4.2-9.2.9,0,.3,0,.5,0,.7.2,2.2-.5,4.1-1.9,5.7-1.6,2-1.6,2.1.3,3.9.8.8,1.7,1.6,2.4,2.4.5.6.5,1.3,0,1.7-.5.4-1.2.2-1.6-.6-.3-.6-.4-1.2-.7-1.8-.6-1.1-1.2-2.2-1.9-3.3-.2-.4-.6-.5-1.1-.4-4.5,1.6-8.5-3-8.2-6.9.2-2.3,1.8-4,3.9-3.9.8,0,1.6.4,2.4.7,0-.1-.1-.4-.2-.7.4,0,.9-.1,1.3-.2.4-.1.8-.4,1.2-.6-.9,0-1.7,0-2.4-.1-2-.4-2.9-2-2.7-4.2,0-.4,0-.8-.3-1.1-1.5-2-1.4-3.9.3-5.3,1.6-1.3,4.1-1,5.6.7.5.5.8,1.2,1.2,1.7.5-1.2-.7-2.7-3.2-4,.8-1.3,2-1.6,3-.4.8,1,1.4,2.2,2.2,3.3,0-.3,0-.7,0-1.1,0-.4-.2-.9-.3-1.3-.4-1.3,0-2.3,1-3.2.4-.3.8-.7,1.1-1,1.2-1.3,2.9-1.5,4.3-.4.7.5,1.3,1.2,2.1,1.8-.3-.5-.5-1.1-.8-1.6-.4-.5-.3-.8.1-1.2,1.4-1.3,3.7-1.2,5,.4.7.8,1.2,1.9,1.7,2.8.3-.6.2-1.4-.5-2.5-1.4-2.1-3.2-3-5.8-1.9-.2-1.6.3-2.9,1.3-3.9,1.3-1.5,3-2.3,5-1.9l2.7,1c1.5.9,2.3,2.4,2.9,4,0,.2.1.5.2.8.6-1.1.5-1.4-1.5-4.9,1.5,0,2,.7,2.5,2.9.2-.7.3-1.4.5-2,2.1.7,3.4,2.6,2.9,4.5h0c0,1.3-.9,2.5-2.2,3-1.2.5-2.4.3-3.3-.7-.4-.4-.7-.8-1-1.1,0,1,0,2,0,2.9,0,.2-.2.4-.3.6-.5,1.1-1.3,1.6-2.6,1.4-.6,0-1.1-.4-1.7-.5-.4,0-.9,0-1.3-.1,0,0,0,.2,0,.3.4.3.9.5,1.3.8,1.8,1.3,2.3,2.9,1.5,5,0,.2,0,.6.2.8,1.2,1.2,2.3,2.4,3.6,3.5.9.9,2,1.6,2.9,2.5.9.9,1,1.7.5,2.5-.5.8-1.6,1.2-2.6.6-.9-.5-1.7-1.3-2.4-2.2-.7-.8-1.2-1.9-1.9-2.8-.6-.8-1.4-.9-2.1-.3-.5.4-.8.9-.5,1.6.2.4.4.8.7,1.1,1.9,2.1,3.9,4,6.2,5.5.9.6,1.5,1.3,1.8,2.3.3,1.1,0,2.2-.9,2.7-.9.6-2,.5-2.9-.3-.7-.7-1.3-1.5-1.8-2.4-1.6-2.5-3.8-4.5-6.1-6.4ZM726.7,193.2c-.6-.6-1-1.3-1.6-2,0,0,0,0,0,0,.7.7,1.3,1.5,2,2.2,1.8,1.6,4.5,1.1,5.5-1.1.2-.5.1-1.4-.2-1.9-.6-.9-1.4-1.7-2.2-2.5-1.8-1.6-3.6-3.2-5.4-4.9-.3-.3-.6-.7-.9-1.1-.4-.4-.3-.9,0-1.2.5-.4.8,0,1.1.3.1.1.2.3.3.6-.1-.1-.3-.3-.4-.3-.2,0-.5,0-.7,0,0,.2,0,.5,0,.6.6.7,1.1,1.4,1.8,2,1.5,1.4,3.1,2.7,4.6,4.1.8.7,1.6,1.5,2.2,2.4.8,1.1.6,2.1-.3,3-2,2.1-4,2-5.9-.1ZM748.1,195.4c-.4.6-.8,1.3-1.2,1.9-.2.2-.4.4-.6.6-.2.1-.4,0-.5-.1,0-.1,0-.2-.1-.3-.1-.3-.4-.5-.8-.5-.8,0-1.6.1-2.4.4-.2,0-.4,0-.5,0-.4-.1-.8-.3-1.2-.4-.2,0-.4,0-.5,0-2.5,2.2-5,4.3-7.4,6.4-.2.2-.5.4-.7.6-.2.2-.4.1-.6-.1-.2-.3-.2-.6,0-1,.2-.5.3-1,.4-1.5,0-.1,0-.2,0-.3,0-.4-.2-.7-.6-.8-.4,0-.7-.8-.6-1.1,0,0,0-.2.2-.2.5-.5,1-1,1.6-1.4s.4-.1.6-.2c.1,0,.3,0,.4-.1.6-.7,1.1-1.5,1.3-2.4.1-.4.1-.8-.2-1.1-.1,0-.2-.2-.4-.2-.5-.1-.6-.3-.5-.8.2-.6.2-1.1,0-1.7,0-.1,0-.3,0-.4.2-.7.3-1.4.5-2.1,0-.3.2-.5.4-.7.6-.6,1.2-1.2,1.9-1.8.3-.2.4-.3.7,0,.4.4.9.7,1.3,1.1.1,0,.2.3.2.4,0,.4.2.7.7.9.2,0,.3.2.4.4.1.2.2.3.5.3.5,0,.8.4,1.1.8.2.3.4.6.8.8.6.3.8.9,1.2,1.4.2.2.3.5.4.8.1.2.3.3.5.5.3.3.5.7.7,1.1.1.2.3.4.5.4.1,0,.2.2.3.3,0,.2,0,.4,0,.6,0,0,0,.2,0,.2.3.1.3.3.3.6,0,0,0,0,0,.2,0,0,.1,0,.1-.1.5-.7.9-1.5,1.4-2.2.1-.2.3-.4.5-.5.2-.2.4,0,.4.3,0,.5-.1.9-.4,1.4Z"/>
  <path class="cls-2" d="M697.2,189.6c-1.5-1.1-3.2-1.4-4.8-.8-.6-1.2-1.3-2.4-1.8-3.5-.1-.3-.2-.6-.2-.9,0-3.8-3.8-6.1-7.1-4.3-.2.1-.5.2-.7.2-2.7-.5-3-.4-4.4,1.7-1.4-.3-2.7-.6-4-.8-1.8-.3-3.3.3-4.3,1.8-.4.6-.9.6-1.2,0-1.3-2.3-3.4-3.1-5.9-3.2-.1,0-.2,0-.3,0-.7.2-1.4.3-2.1.5-1.6.8-3.1,1.9-3.9,3.6,0,0,0,.2-.2.2-1.4.5-1.9,1.9-2.8,2.8-2.2,2.2-2,5.9.3,7.9,1.4,1.2,4.1,1.3,5.6.2.4-.3.7-.5,1-.8.4-.4.9-.4,1.4,0,.8.7,1.7.7,2.7.4,1.4-.3,1.4-.3,1.5,1.1,0,1.1.6,1.9,1.5,2.3.6.2.7.6.5,1.1-.5,1.9-1,3.7-1.3,5.6-.2,1.1-.3,2.3-.3,3.4,0,1.4.7,1.8,2.3,2,1.1.1,1.8-.3,2.2-1.5.4-1.2.7-2.4,1.2-3.6,0,.3,0,.5,0,.8-.3,1.1-.6,2.2-.9,3.3-.4,1.1-1,1.6-1.9,1.6-1.7,0-2.7-.5-3-1.7-.2-.8-.3-1.6-.2-2.4.4-2.2.9-4.4,1.4-6.7.2-.8.3-1.5-.7-1.9-1-.5-1.3-1.5-1.2-2.7-1.4-.3-3,.7-4.1-1.1-.4,2-.9,3.8-1.2,5.5-1.4,8-2.8,16-4.3,24.1-.1.6-.1,1.2-.2,1.8-.1,1.6,0,2,1.6,2.4,1.7.5,3.5,1,5.2,1.4,4.8,1,9.6,1.6,14.5,1.7.1,0,.6.1.9.1h1.9s0,0,0,0c1-.1,1.9-.2,2.7-.4.8-.2,1-.9,1-1.6.4-3.3.8-6.6,1-9.9.5-5.5.8-11.1,1.2-16.6,0-.3,0-.7,0-1.2-.3.4-.5.6-.8.9-1.1,1.3-2.6,1.8-4.3,1.5-.3,0-.5-.1-.8-.1-1.2-.2-2,.3-2.3,1.5-.2.9-.3,1.8-.5,2.7.1-1.1.1-2.2.4-3.2.3-1.3,1.1-1.8,2.4-1.6,1.1.2,2.3.5,3.3-.2.9-.6,1.7-1.4,2.4-2.3.5-.6.8-.7,1.4-.3,1.5.9,3,1.8,4.5,2.6.5.3.7.6.6,1.2-.3,1.5-.5,3-.8,4.5-.2,1.4.3,2.2,1.4,2.4,1.3.2,2.6-.7,2.7-2,0-.7-.1-1.4-.2-2.1-.2-1.1-.4-2.2-.5-3.3,0-.5.2-.8.7-1,2.6-1.1,4-3.1,4.3-5.9.3-2.8-.4-5.4-2.8-7.2ZM677,221.7c0,.3,0,.3-.3.3,0,0-.1,0,0,.2,0,.2,0,.3,0,.5,0,0,0,.1,0,.2,0,.1,0,.3-.1.4-.2.3-.3.5-.4.8,0,.3-.2.5-.3.7,0,0,0,.2,0,.3,0,.2-.1.4-.4.5-.2,0-.3.2-.5.4-.2.2-.5.3-.7.4-.1,0-.2,0-.3,0,0-.1-.2-.1-.3,0-.1.2-.2.3-.4.3,0,0-.1,0-.2.1-.1.2-.2.4-.2.7,0,.2-.3.5-.5.5-.1,0-.2,0-.2-.2,0,0,0-.1,0-.2,0-.1-.2-.2-.2,0-.1.2-.3.4-.4.6,0,.1,0,.2,0,.4,0,.3,0,.3-.3.4,0,0-.1,0-.1.2,0,.2-.2.4-.5.4,0,0-.2,0-.3,0-.1,0-.2,0-.3,0,0,0,0-.1-.1-.2,0-.2-.2-.3-.4-.4-.2,0-.2-.2-.2-.4,0-.3,0-.3-.3-.2-.2,0-.3.1-.5.2-.2,0-.4,0-.5,0,0,0-.2-.1-.2-.2-.2-.1-.3-.2-.5,0-.4.1-.4,0-.6-.2-.1-.2-.3-.3-.5-.3-.2,0-.3-.1-.5-.2,0,0,0-.1-.1-.2,0,0,0-.2,0-.2,0-.4-.4-.6-.7-.7-.2,0-.5-.2-.7-.3,0,0,0-.1,0-.2,0-.4.1-.8.2-1.1.2-1.1.4-2.3.6-3.4,0,0,0,0,0,0,.2-1.5.5-3,.7-4.5,0-.2,0-.2.3-.2,1.1.1,2.2.3,3.3.4.1,0,.2,0,.3.1,0,0,.2,0,.3,0,0,0,0,0,0,0,.3.2.5.4.8.6.1.1.2.2.4.2.2,0,.4,0,.5.2,0,0,0,.1.1.2.1.2.3.3.6.2.3-.1.6-.2,1-.2,0,0,.2,0,.3,0,.3.1.6.1.9,0,0,0,.2-.1.3-.2.5-.4,1.1-.6,1.7-.7.4,0,.7-.2,1.1-.3,0,0,.1,0,.2,0,.1,0,.1,0,.1.1-.2,1.6-.4,3.1-.5,4.7ZM677.4,210.3s0,0,0,0c0,.8,0,1.7-.2,2.5-.4,2.9-2,4-4.8,3.4-1.3-.3-2-1-2-2.3,0-1.1.2-2.2.5-3.2.5-2,1-3.9,1.5-5.9.2-.9.3-1.7.4-2.6,0-.2-.2-.4-.3-.6-.2.1-.5.2-.6.4-.1.1-.1.3-.2.5,0-.2-.1-.4,0-.6,0-.5.2-.9.8-.8.6,0,.8.4.8,1,0,.5,0,.9-.2,1.4-.6,2.4-1.2,4.7-1.7,7-.2,1.1-.5,2.2-.5,3.3,0,.6.4,1.4.9,1.7,2,1.2,4.6.1,5.2-2.2.2-1,.3-2,.4-3ZM694.5,201.7c-.5.1-.8.4-.7.9,0,1.3.1,2.5.3,3.8,0,.6.3,1.3.4,1.9.1.8-.3,1.4-1,1.4-.7,0-1.1-.6-1-1.4.2-1.1.4-2.3.6-3.4.6-2.5.5-2.6-1.9-3.4-2.1-.6-3.7-1.8-4.8-3.7-.1-.2-.3-.4-.4-.6-.4,4.3-4.1,6.7-8.1,4.5-.8,2.8-1.6,5.7-1.5,8.7,0,1,0,2-.2,3-.2,1.2-1.1,1.8-2.2,1.9-1,0-2-.7-2.3-1.7-.3-1-.2-2,.2-2.9,1.1-2.6,1.7-5.3,2-8,0-.4,0-.9,0-1.3-.1-.7-.6-1-1.3-1-.9,0-1.5.4-1.6,1.4,0,1.1.1,2.3,0,3.4-.1,1.1-.3,2.2-.8,3.1-.5,1-1.6,1.3-2.5,1-.8-.3-1.2-1.1-1-2.3.3-1.2.7-2.4,1-3.7.4-1.6.7-3.3,1-4.9,0-.2,0-.6-.3-.7-1.8-1.3-2.3-2.9-1.6-4.9.2-.5.4-1,.6-1.4,0,0-.1-.1-.2-.2-.4.3-.7.5-1,.8-.4.4-.7,1-1.1,1.4-.9.8-1.9.9-2.9.3-.2-.1-.4-.2-.6-.4-.6-.8-1.1-1.6-1.7-2.4,0,.5,0,1-.2,1.5-.2,1.3-1,2.2-2.3,2.5-1.4.3-2.8-.2-3.5-1.2h0c-1.5-1.4-1.5-3.6-.1-5.4.5.5,1,1,1.5,1.4-.8-2.1-.8-3,.4-3.8.3,4,.4,4.3,1.5,4.9,0-.3-.2-.5-.3-.8-.4-1.7-.6-3.3.1-4.9.6-.8,1.1-1.5,1.7-2.3,1.5-1.5,3.3-1.7,5.2-1.2,1.4.3,2.5,1,3.3,2.5-2.7.6-3.7,2.4-3.7,4.9,0,1.3.4,2,1,2.3,0-1-.3-2.2-.1-3.2.2-2,2.1-3.4,3.9-3.1.6,0,.8.3.8.9,0,.6.1,1.2.2,1.8.4-.9.5-1.8.8-2.6.5-1.7,2.1-2.5,3.8-2.1.5.1,1,.2,1.5.2,1.4,0,2.2.8,2.6,2,.1.4.2.9.4,1.3.2.3.5.6.7.9,0-1.4-.2-2.7,0-4,.2-1.5,1.4-2,2.8-1.3-1.3,2.5-1.4,4.3-.4,5.1,0-.7,0-1.4,0-2.1.2-2.2,2.1-3.9,4.2-3.7,2.2.2,3.4,1.7,3.3,4.2,0,.3.2.8.4,1.1,1.4,1.6,1.5,3.5.1,4.9-.5.5-1.2.9-1.9,1.5.5,0,1,0,1.4-.2.4-.1.8-.3,1.2-.5,0,.3.2.6.2.7.5-.6.9-1.4,1.6-1.9,1.7-1.3,4-.8,5.4,1,2.5,3.1,1.8,9.1-2.9,10.3Z"/>
</svg>